<svg xmlns="http://www.w3.org/2000/svg" width="512" height="512" viewBox="0 0 512 512" version="1.1">
	<path d="M 236 21.699 C 213.141 25.600, 195.113 34.794, 187.401 46.483 C 183.880 51.819, 181.528 59.985, 182.452 63.666 C 182.977 65.755, 183.309 65.595, 187.814 61.091 C 194.958 53.947, 206.781 50.775, 217.765 53.055 C 231.669 55.941, 236.176 70.557, 223.756 72.482 C 214.772 73.873, 204.301 77.262, 196.590 81.274 C 188.753 85.351, 176.925 94.078, 172.076 99.359 C 170.742 100.812, 169.317 102, 168.907 102 C 168.498 102, 167.114 98.963, 165.832 95.250 C 163.855 89.528, 163.500 86.519, 163.500 75.500 C 163.500 63.593, 163.718 62.037, 166.091 57 C 167.516 53.975, 170.796 49.031, 173.381 46.013 C 175.965 42.996, 177.629 40.376, 177.078 40.193 C 176.527 40.009, 172.347 41.785, 167.788 44.139 C 156.849 49.789, 143.136 63.220, 137.810 73.500 C 131.737 85.223, 129.546 93.913, 129.617 106 C 129.685 117.725, 130.570 121.777, 135.690 133.804 C 137.635 138.371, 139.026 142.307, 138.783 142.550 C 138.539 142.794, 135.905 142.270, 132.928 141.386 C 123.872 138.697, 117.028 130.066, 117.006 121.309 C 116.997 117.758, 115.245 117.716, 114.134 121.241 C 109.699 135.320, 113.550 150.435, 124.498 161.913 C 127.567 165.131, 132.761 169.193, 136.039 170.940 C 139.318 172.688, 142 174.479, 142 174.922 C 142 176.630, 131.974 185, 129.928 185 C 127.102 185, 121.596 178.917, 118.272 172.124 C 115.790 167.051, 115.587 166.879, 114.726 169.121 C 114.224 170.430, 114.018 175.675, 114.268 180.779 C 114.668 188.913, 115.169 190.957, 118.328 197.349 C 122.757 206.311, 128.401 212.874, 134.430 216.072 C 137.113 217.496, 139 219.198, 139 220.196 C 139 221.131, 136.785 224.558, 134.077 227.812 L 129.154 233.728 136.680 238.864 C 140.819 241.689, 144.557 244, 144.986 244 C 145.414 244, 147.671 241.075, 150 237.500 C 152.329 233.925, 154.415 231, 154.634 231 C 154.854 231, 153.950 233.138, 152.626 235.752 C 147.726 245.422, 138.037 252.415, 121.750 258.039 C 118.037 259.321, 115 260.760, 115 261.237 C 115 262.573, 126.741 267.739, 133.946 269.574 C 141.256 271.436, 151.814 271.885, 160.166 270.688 L 165.833 269.877 167.025 275.618 C 168.685 283.618, 166.905 293.782, 161.527 307 C 156.233 320.013, 155.902 321.844, 157.581 328.864 C 161.195 343.979, 159.695 345.720, 132.500 357.967 C 121.386 362.972, 117 368.197, 117 376.430 C 117 378.921, 117.728 382.778, 118.617 385.001 L 120.234 389.042 115.583 393.135 C 110.190 397.883, 108.239 401.222, 106.059 409.433 L 104.484 415.367 97.992 416.985 C 90.651 418.816, 86.188 420.947, 80.750 425.221 C 74.911 429.810, 75.652 431.247, 85.250 433.950 C 98.026 437.548, 104.943 441.254, 113.792 449.242 C 124.255 458.686, 130.498 462.361, 144.776 467.476 C 151.224 469.786, 158.863 472.882, 161.750 474.355 C 167.697 477.389, 168.128 476.858, 165.352 469.921 C 163.954 466.427, 163.916 465.667, 165.102 464.916 C 167.965 463.103, 171.995 464.143, 182.952 469.520 C 204.874 480.279, 224.414 485.566, 246.262 486.650 C 272.642 487.959, 300.667 482.194, 323.500 470.764 C 334.042 465.486, 355 452.960, 355 451.936 C 355 449.037, 352.568 445.718, 349.506 444.438 C 347.578 443.632, 346 442.763, 346 442.506 C 346 442.249, 347.657 439.449, 349.682 436.283 C 354.088 429.395, 363.075 410.576, 365.451 403.262 C 366.387 400.381, 367.456 397.841, 367.826 397.618 C 369.090 396.856, 383.332 400.990, 385.169 402.653 C 388.873 406.005, 387.763 408.629, 377.636 420.463 C 365.684 434.430, 354.782 453.677, 353.486 463.100 C 353.106 465.866, 353.035 468.368, 353.329 468.662 C 353.953 469.286, 367.302 459.929, 379.129 450.577 C 394.725 438.244, 405.707 434, 422.019 434 C 433.449 434, 436.347 432.760, 433.711 428.998 C 430.583 424.533, 422.386 418.637, 413.248 414.281 L 403.997 409.871 404.610 406.038 C 405.395 401.131, 403.559 395.585, 400.304 393.024 C 398.900 391.920, 395.108 390.053, 391.876 388.874 C 388.644 387.696, 386 386.420, 386 386.038 C 386 385.657, 387.172 382.461, 388.604 378.936 C 391.969 370.656, 391.610 364.130, 387.421 357.385 C 383.690 351.376, 377.408 347.088, 365.673 342.541 C 360.534 340.550, 354.830 337.669, 352.996 336.138 C 349.749 333.427, 349.660 333.148, 349.581 325.427 C 349.505 317.992, 349.193 316.891, 344.562 307.699 C 339.669 297.986, 339.621 297.798, 339.218 286.699 C 338.988 280.375, 339.256 274.357, 339.833 272.874 L 340.856 270.248 354.178 270.731 C 364.405 271.101, 369.126 270.831, 374.500 269.566 C 381.455 267.930, 395 262.302, 395 261.049 C 395 260.688, 391.738 259.353, 387.750 258.081 C 372.773 253.302, 362.854 246.559, 356.822 237.054 C 352.312 229.948, 353.556 230.115, 359.034 237.351 C 361.802 241.008, 364.282 244, 364.546 244 C 365.294 244, 379 234.761, 379 234.257 C 379 234.009, 377.155 231.713, 374.900 229.153 C 372.644 226.594, 370.152 223.251, 369.361 221.725 C 367.974 219.049, 368.035 218.890, 371.087 217.225 C 385.579 209.321, 394.113 195.311, 393.900 179.775 C 393.724 166.905, 391.925 164.422, 388.817 172.755 C 386.295 179.515, 381.219 185, 377.485 185 C 374.559 185, 366.823 179.406, 364.975 175.954 C 364.070 174.261, 364.726 173.671, 370.726 170.783 C 379.934 166.352, 388.180 158.084, 392.173 149.282 C 395.834 141.211, 396.994 129.320, 394.819 122.152 C 393.329 117.242, 391.627 116.560, 391.243 120.719 C 390.117 132.905, 383.655 140.473, 372.607 142.546 L 368.806 143.259 372.860 135.872 C 387.968 108.345, 381.595 75.624, 356.565 52.210 C 349.562 45.659, 340.355 39, 338.300 39 C 337.618 39, 338.828 41.799, 341.020 45.296 C 351.025 61.253, 351.949 77.222, 344.069 98.015 C 340.519 107.384, 340.926 107.341, 332.784 99.217 C 321.668 88.126, 307.620 79.094, 292.881 73.562 L 288.262 71.828 287.726 65.916 C 287.012 58.039, 282.593 48.882, 276.063 41.750 L 270.799 36 274.650 36.003 C 276.767 36.004, 282.727 37.137, 287.893 38.522 C 304.659 43.013, 322.742 52.837, 332.849 62.945 C 337.701 67.796, 338.035 67.971, 337.431 65.339 C 332.740 44.905, 308.679 28.314, 275.290 22.491 C 267.369 21.110, 242.402 20.606, 236 21.699 M 214.500 36.832 C 211.200 37.826, 206.326 39.759, 203.669 41.128 L 198.838 43.618 211.669 43.559 C 226.550 43.491, 233.910 45.226, 239.482 50.118 C 249.334 58.768, 245.075 71.265, 225.883 90.027 C 212.123 103.477, 210.485 106.693, 210.537 120.156 L 210.575 129.813 204.083 130.508 C 194.975 131.483, 186.467 133.933, 172 139.746 C 152.823 147.452, 139.656 149.598, 130.500 146.511 L 128.500 145.837 130.500 147.497 C 137.150 153.016, 149.446 156.502, 159.344 155.673 C 166.421 155.081, 172.111 152.782, 184.500 145.508 C 200.759 135.961, 219.925 135.380, 236.844 143.921 C 240.050 145.540, 244.125 148.517, 245.898 150.537 C 247.672 152.557, 249.350 153.983, 249.627 153.706 C 249.905 153.429, 249.628 151.331, 249.012 149.044 C 246.855 141.032, 237.610 133.916, 225.440 130.900 C 222.723 130.227, 220.169 129.186, 219.765 128.588 C 219.361 127.990, 219.024 124.326, 219.015 120.446 C 219.003 114.866, 219.534 112.322, 221.555 108.265 C 224.289 102.779, 228.323 99.651, 245.888 89.397 C 261.529 80.265, 270.783 68.635, 269.743 59.413 C 268.787 50.927, 260.601 42.425, 249 37.868 C 241.224 34.814, 223.014 34.267, 214.500 36.832 M 154.781 67.750 C 149.711 77.243, 148.498 82.632, 148.533 95.500 C 148.560 105.194, 149.020 108.990, 150.929 115.250 C 152.228 119.513, 153.676 123, 154.146 123 C 154.616 123, 155 122.620, 155 122.155 C 155 121.690, 156.777 118.561, 158.949 115.201 L 162.897 109.092 160.506 103.207 C 155.967 92.036, 154.735 74.089, 157.930 65.685 C 159.609 61.268, 157.506 62.647, 154.781 67.750 M 355.500 79.231 C 355.500 93.429, 353.948 100.305, 348.653 109.562 L 346.329 113.624 350.306 120.284 C 352.494 123.946, 354.640 126.722, 355.076 126.453 C 356.882 125.337, 361.980 109.742, 363.123 101.840 C 364.516 92.204, 363.626 84.298, 360.096 74.940 C 356.028 64.156, 355.500 64.649, 355.500 79.231 M 104.663 109.318 C 91.150 123.234, 82.005 150.155, 82.010 176 C 82.014 194.759, 86.368 213.795, 94.239 229.468 C 98.655 238.259, 109.571 255, 110.888 255 C 111.348 255, 112.019 252.492, 112.380 249.426 C 113.244 242.073, 114.876 238.469, 119.907 232.803 L 124.077 228.106 118.962 221.803 C 96.454 194.071, 91.741 147.185, 108.055 113.309 C 110.225 108.804, 112 104.867, 112 104.559 C 112 102.824, 109.214 104.631, 104.663 109.318 M 398.219 104.750 C 409.276 126.256, 412.947 147.566, 409.891 172.500 C 407.593 191.258, 400.356 209.330, 390.225 221.612 L 384.789 228.202 388.320 231.112 C 393.213 235.146, 395.893 239.860, 397.349 246.996 C 398.032 250.344, 399.011 253.177, 399.526 253.292 C 402.408 253.933, 417.740 227.064, 422.517 213 C 429.936 191.158, 429.870 162.640, 422.348 139.500 C 416.982 122.994, 404.820 104, 399.616 104 C 398.635 104, 398.007 104.338, 398.219 104.750 M 303 105.816 C 303 107.339, 295.019 111.125, 285.603 114.069 C 280.442 115.682, 275.157 117.939, 273.860 119.085 C 271.807 120.896, 271.760 121.075, 273.500 120.459 C 282.788 117.168, 288.581 115.949, 299.669 114.954 C 306.726 114.320, 312.658 113.650, 312.852 113.465 C 313.046 113.280, 311.471 112.840, 309.352 112.487 C 303.121 111.448, 302.982 111.339, 303.642 108.038 C 303.977 106.367, 303.969 105, 303.625 105 C 303.281 105, 303 105.367, 303 105.816 M 282.762 131.942 C 271.671 135.487, 260.868 144.524, 256.843 153.621 C 253.995 160.060, 254.928 160.685, 259.312 155.275 C 264.284 149.140, 271.609 143.702, 278.760 140.836 C 283.612 138.891, 286.280 138.540, 296 138.568 C 309.163 138.605, 313.336 139.886, 324.909 147.441 C 334.907 153.967, 339.939 155.318, 352.245 154.775 C 362.275 154.333, 370.717 152.121, 375.378 148.713 C 376.860 147.629, 376.063 147.485, 370.318 147.796 C 361.153 148.292, 352.632 146.335, 333 139.227 C 306.706 129.707, 295.043 128.016, 282.762 131.942 M 209 159.369 C 201.335 161.615, 194.969 165.430, 182 175.551 C 175.125 180.916, 166.125 186.924, 162 188.903 C 154.708 192.400, 154.175 192.500, 142.799 192.500 C 136.364 192.500, 131.440 192.841, 131.858 193.258 C 133.535 194.934, 144.222 198, 148.386 198 C 158.705 198, 168.866 192.994, 183.998 180.454 C 201.358 166.067, 207.822 162.996, 220.725 163.006 C 229.892 163.012, 234.407 164.109, 239.499 167.564 C 241.553 168.958, 243.468 169.866, 243.753 169.581 C 245.071 168.262, 240.296 163.567, 235.321 161.289 C 228.644 158.232, 216.021 157.311, 209 159.369 M 276.926 160.281 C 271.219 162.690, 264 167.785, 264 169.405 C 264 169.903, 264.800 169.586, 265.777 168.702 C 266.755 167.817, 270.242 165.835, 273.527 164.297 C 278.607 161.918, 280.778 161.500, 288.052 161.500 C 295.914 161.500, 297.214 161.802, 304.168 165.238 C 309.678 167.962, 314.612 171.658, 322.340 178.851 C 341.637 196.814, 356.228 201.363, 372.599 194.523 C 377.845 192.331, 376.275 191.681, 368.948 193.010 C 354.008 195.719, 342.760 191.027, 322.500 173.634 C 309.031 162.073, 302.147 158.714, 291 158.269 C 283.831 157.982, 281.627 158.297, 276.926 160.281 M 247.262 181.481 C 243.382 187.470, 240.443 188.324, 226.466 187.518 C 216.285 186.930, 213.750 187.078, 211.182 188.406 C 207.350 190.388, 204.006 194.866, 201.033 202 C 199.773 205.025, 196.453 210.783, 193.656 214.795 L 188.570 222.090 188.812 241.157 C 189.073 261.731, 190.302 268.155, 195.502 276.129 C 198.379 280.541, 205.108 284, 210.816 284 C 214.181 284, 215 284.353, 215 285.803 C 215 287.432, 209.445 296, 208.389 296 C 208.148 296, 207.552 294.951, 207.065 293.670 C 206.221 291.452, 197.569 287.097, 196.376 288.290 C 195.419 289.247, 198.145 301.524, 200.420 306.500 C 201.677 309.250, 204.479 313.630, 206.647 316.233 C 209.397 319.535, 211.268 323.273, 212.833 328.593 C 215.525 337.743, 218.538 342.443, 224.112 346.187 C 231.892 351.412, 239.185 352.267, 247.065 348.877 L 252 346.754 257.214 348.997 C 268.695 353.936, 282.909 348.974, 289.959 337.566 C 291.079 335.754, 292.845 330.873, 293.882 326.720 C 295.109 321.813, 296.844 317.827, 298.839 315.335 C 303.416 309.617, 306.051 302.775, 306.712 294.892 L 307.303 287.847 303.401 289.444 C 301.256 290.322, 298.694 292.005, 297.708 293.183 L 295.917 295.325 291.958 291.459 C 286.341 285.974, 286.627 284, 293.040 284 C 302.061 284, 307.987 279.638, 312.572 269.624 C 315.203 263.876, 315.262 263.313, 315.380 242.585 L 315.500 221.416 311.370 214.958 C 309.099 211.406, 305.592 205.498, 303.578 201.828 C 301.563 198.158, 298.193 193.600, 296.088 191.699 C 290.385 186.546, 286.562 185.641, 273.945 186.459 C 264.401 187.078, 262.627 186.928, 258.658 185.173 C 256.189 184.081, 253.404 182.020, 252.469 180.594 C 251.535 179.167, 250.484 178.006, 250.135 178.012 C 249.786 178.019, 248.493 179.580, 247.262 181.481 M 325.199 199.357 C 332.831 206.671, 339.624 209.316, 351 209.406 C 357.866 209.461, 360.503 209.023, 364.719 207.127 C 367.589 205.837, 370.455 204.157, 371.088 203.394 C 371.780 202.560, 370.297 202.903, 367.370 204.253 C 363.290 206.136, 360.797 206.497, 352 206.482 C 342.490 206.466, 340.887 206.183, 335.002 203.484 C 331.428 201.845, 326.478 199.017, 324.002 197.200 C 319.749 194.079, 319.815 194.198, 325.199 199.357 M 179.546 198.969 C 172.522 203.952, 163.639 206.506, 153.500 206.456 C 147.664 206.428, 142.932 205.828, 140.039 204.751 C 133.601 202.352, 133.936 203.331, 140.687 206.646 C 145.768 209.141, 147.570 209.489, 155 209.409 C 160.215 209.354, 165.154 208.691, 167.779 207.693 C 173.102 205.672, 182.622 199.428, 183.375 197.465 C 183.684 196.659, 183.839 196.037, 183.719 196.082 C 183.598 196.127, 181.721 197.426, 179.546 198.969 M 199.603 218.477 C 194.190 220.406, 192.861 222.056, 192.233 227.624 C 191.726 232.120, 191.803 232.340, 193.345 230.798 C 196.180 227.963, 205.128 226.665, 211.750 228.129 C 215.718 229.006, 216.725 229.499, 215 229.719 C 207.510 230.678, 205.537 231.423, 201.978 234.639 C 199.579 236.806, 197.600 237.871, 196.841 237.402 C 194.283 235.821, 200.291 243.120, 203.667 245.696 C 208.632 249.482, 216.492 249.957, 226.067 247.048 C 230.208 245.790, 235.200 244.984, 237.841 245.147 C 241.972 245.401, 242.495 245.185, 243.114 242.964 C 244.001 239.783, 244.174 233.508, 243.397 232.731 C 243.066 232.399, 241.720 232.536, 240.407 233.035 C 238.374 233.808, 237.454 233.370, 234.196 230.079 C 229.875 225.715, 219.959 220.360, 212.500 218.363 C 206.315 216.706, 204.526 216.722, 199.603 218.477 M 286.347 218.929 C 276.526 221.581, 271.135 224.435, 266.932 229.211 C 263.744 232.833, 263.129 233.140, 261.167 232.089 C 257.904 230.343, 257.397 232.876, 259.637 239.736 L 261.500 245.441 266.536 245.158 C 269.421 244.996, 274.753 245.756, 279.016 246.937 C 291.585 250.420, 296.508 249.421, 303.500 241.969 C 305.700 239.625, 306.919 238.035, 306.210 238.437 C 305.412 238.889, 304.135 238.170, 302.865 236.556 C 299.862 232.738, 293.813 230.005, 288.290 229.970 C 284.454 229.945, 283.860 229.730, 285.307 228.888 C 288.550 227.002, 301.053 226.704, 306.453 228.385 C 309.178 229.233, 311.570 229.764, 311.769 229.564 C 311.968 229.365, 311.625 227.322, 311.007 225.025 C 310.096 221.642, 309.207 220.567, 306.329 219.364 C 300.576 216.960, 294.159 216.821, 286.347 218.929 M 212.718 236.092 C 208.042 237.193, 203 239.734, 203 240.990 C 203 245.689, 229.176 245.077, 230.726 240.342 C 231.128 239.114, 221.135 234.929, 218.212 235.100 C 217.271 235.156, 214.798 235.602, 212.718 236.092 M 277.282 236.265 C 275.512 236.944, 273.316 238.250, 272.401 239.167 C 270.849 240.722, 270.998 240.906, 274.619 241.918 C 287.563 245.537, 296.745 245.421, 299.916 241.601 C 300.847 240.479, 300.194 239.788, 296.520 238.010 C 291.109 235.390, 281.770 234.544, 277.282 236.265 M 337.515 241.858 C 340.131 247.189, 347.153 253.493, 354.245 256.878 C 362.638 260.884, 366.029 260.960, 358.449 256.973 C 350.616 252.853, 343.774 247.704, 339.465 242.688 C 335.956 238.602, 335.908 238.582, 337.515 241.858 M 167.672 243.919 C 164.507 248.701, 160.189 252.075, 150.723 257.157 C 142.407 261.622, 146.230 261.345, 155.280 256.827 C 161.820 253.561, 168.323 247.382, 169.861 242.969 C 171.236 239.026, 170.779 239.224, 167.672 243.919 M 174.539 263.387 C 171.171 266.073, 171.465 269.022, 175.589 273.923 C 178.467 277.343, 183.337 278.171, 184.393 275.418 C 185.516 272.491, 185.012 268.089, 183.406 266.789 C 182.529 266.080, 180.815 264.515, 179.597 263.310 L 177.382 261.120 174.539 263.387 M 323.172 266.128 C 320.467 268.663, 319.968 269.736, 320.503 271.868 C 321.968 277.706, 326.035 278.706, 330.191 274.250 C 332.759 271.496, 335.453 267.045, 334.831 266.583 C 328.868 262.152, 327.473 262.098, 323.172 266.128 M 233.137 279.159 C 231.077 284.727, 235.496 289.925, 244.518 292.548 C 249.619 294.031, 250.277 294.002, 257.012 291.997 C 266.410 289.198, 269.230 286.368, 267.393 281.582 C 266.618 279.563, 265.129 279.574, 262.874 281.614 C 261.511 282.848, 258.753 283.260, 251.156 283.364 C 242.672 283.480, 240.913 283.222, 239.111 281.595 C 237.950 280.547, 237 279.085, 237 278.345 C 237 276.173, 234.008 276.804, 233.137 279.159 M 232.338 300.796 C 229.755 301.549, 226.640 301.973, 225.415 301.739 C 221.992 301.085, 221.264 306.286, 224.253 310.040 C 225.489 311.592, 227.625 314.423, 229 316.331 C 233.770 322.951, 237.182 324.459, 248.253 324.846 C 253.702 325.037, 259.626 324.917, 261.418 324.581 C 267.981 323.350, 279.432 310.533, 278.804 305.120 C 278.538 302.824, 278.094 302.532, 275.216 302.758 C 273.411 302.900, 270.486 302.264, 268.716 301.344 C 264.448 299.125, 239.365 298.747, 232.338 300.796 M 233.950 310.450 C 232.243 312.156, 232.946 313.921, 235.950 315.474 C 240.212 317.678, 263.620 317.655, 266.777 315.443 C 269.245 313.715, 269.658 311.538, 267.750 310.321 C 265.972 309.187, 235.095 309.305, 233.950 310.450 M 302.188 330.500 C 299.461 339.934, 295.579 346.068, 289.012 351.319 C 284.566 354.873, 284.206 355.506, 283.793 360.479 C 283.438 364.767, 282.281 367.548, 277.925 374.582 C 271.935 384.255, 259.059 397.905, 253.911 400.037 C 250.770 401.338, 250.552 401.276, 248.568 398.516 C 247.431 396.933, 243.700 392.155, 240.277 387.897 C 229.963 375.065, 227.846 371.238, 225.048 360.364 C 224.210 357.107, 222.849 355.371, 218.638 352.192 C 212.200 347.331, 207.832 341.010, 204.971 332.414 C 203.801 328.898, 202.429 325.765, 201.922 325.452 C 201.371 325.111, 201 332.968, 201 344.981 C 201 362.963, 200.794 365.484, 199.042 368.918 C 195.685 375.499, 185.981 383.247, 172.440 390.161 C 160.561 396.226, 160.023 396.635, 160.012 399.628 C 160.005 401.348, 160.588 403.243, 161.307 403.840 C 162.026 404.437, 172.485 405.871, 184.549 407.027 C 210.818 409.545, 222.066 411.391, 227.706 414.109 C 232.615 416.475, 238 422.203, 238 425.060 C 238 426.918, 237.813 426.955, 235.206 425.606 C 231.689 423.788, 222.564 421.423, 213.570 420 C 205.263 418.686, 173.683 416.032, 166.125 416.013 L 160.750 416 161.376 419.130 C 163.214 428.322, 176.153 443.648, 189.666 452.639 C 208.106 464.909, 229.615 471, 254.500 471 C 274.480 471, 293.638 466.536, 309.500 458.185 C 323.051 451.051, 342.353 428.484, 344.627 417.117 C 345.365 413.424, 346.661 413.557, 329 415.519 C 310.544 417.569, 289.313 421.373, 278.500 424.567 C 261.066 429.716, 260 429.944, 260 428.526 C 260 426.331, 267.450 420.363, 274.136 417.202 C 285.100 412.020, 310.629 406.592, 337.773 403.673 C 344.524 402.947, 350.502 401.898, 351.060 401.340 C 351.617 400.783, 352.335 398.707, 352.657 396.728 L 353.241 393.128 343.767 388.701 C 331.775 383.097, 323.336 377.370, 315.819 369.736 C 306.599 360.371, 306.008 358.673, 305.196 339.183 L 304.500 322.500 302.188 330.500 M 172.611 345.750 C 169.132 352.392, 159.283 359.185, 145.246 364.624 C 136.341 368.075, 129 373.161, 129 375.882 C 129 376.513, 130.689 375.910, 132.754 374.544 C 134.819 373.178, 139.421 370.876, 142.982 369.429 C 151.974 365.776, 160.886 361.188, 164.821 358.187 C 168.525 355.362, 173.386 348.692, 174.249 345.250 C 175.009 342.216, 174.358 342.415, 172.611 345.750 M 338.138 346.973 C 341.275 351.216, 348.788 356.184, 362.124 362.834 C 371.207 367.363, 374.141 369.369, 376.744 372.828 C 379.643 376.682, 380 376.893, 380 374.758 C 380 373.436, 378.332 370.411, 376.284 368.018 C 373.317 364.552, 369.843 362.385, 359.069 357.278 C 351.644 353.758, 343.389 349.312, 340.724 347.397 L 335.878 343.915 338.138 346.973 M 135.308 402.053 C 126.512 404.871, 124.704 407.449, 125.177 416.500 C 125.426 421.259, 126.317 425.101, 127.959 428.500 C 132.420 437.735, 147.794 450.281, 156.349 451.669 C 162.113 452.605, 162.093 450.236, 156.246 439.124 C 149.926 427.116, 146.956 417.668, 146.463 408 C 146.107 401.039, 145.915 400.485, 143.790 400.284 C 142.530 400.166, 138.714 400.962, 135.308 402.053" stroke="black" fill="white" fill-rule="evenodd"/>
</svg>
